<svg width="679" height="830" viewBox="0 0 679 830" fill="none" xmlns="http://www.w3.org/2000/svg">
<g filter="url(#filter0_d_4_6)">
<path d="M6.84058 238.742C6.84058 370.597 124.322 477.485 269.242 477.485C414.162 477.485 531.643 370.597 531.643 238.742C531.643 106.889 414.162 0 269.242 0C124.322 0 6.84058 106.889 6.84058 238.742Z" fill="#EF9539"/>
<path d="M107.304 581.5L108.317 560.046L100.824 560.354L99.8804 581.964L107.304 581.5ZM109.139 542.634L101.827 537.3L101.081 554.488L108.592 554.171L109.139 542.634ZM110.587 511.918L102.911 512.552L102.138 530.238L109.454 535.884L110.587 511.918ZM88.0692 513.777L87.5028 513.824L87.4578 518.881L87.2544 541.492L95.7918 540.905L96.066 533.098L88.8738 527.847V520.004L96.3299 525.758L96.7805 513.06L88.0692 513.777ZM72.0421 547.196L70.9209 581.754L81.697 581.002L82.015 561.118L75.7483 561.374V555.552L82.1089 555.282L82.2492 546.484L72.0421 547.196ZM37.7776 304.44L36.6885 330.208L69.4726 326.054L70.5617 301.195L37.7776 304.44ZM36.2277 341.096L67.2044 376.281L67.2687 376.262L68.2664 353.583L36.2869 339.661L36.2277 341.096ZM34.4151 384.09L65.863 376.599L36.153 342.852L34.4151 384.09ZM32.1996 436.508L40.3844 433.639L40.6689 420.565H46.821L46.4618 431.506L65.1331 424.957L65.1872 423.829L34.0881 391.752L32.1996 436.508ZM31.1428 461.554H33.1278V470.587H31.341L30.5583 486.604L30.8698 487.068L39.2799 484.579L40.015 450.759L32.3065 442.662L31.937 442.697L31.1428 461.554ZM29.6841 504.592L32.0812 506.837V504.592L29.7216 503.738L29.6841 504.592ZM28.8745 521.088L27.6516 546.225L32.0812 545.776V508.492L29.6031 506.173L28.8745 521.088ZM26.8573 562.418L32.0812 558.358V556.791L27.1096 557.264L26.8573 562.418ZM26.7285 565.073L32.0812 568.85V559.87L26.7826 563.994L26.7285 565.073ZM26.4286 571.197L32.0812 576V572.681L26.5405 568.87L26.4286 571.197ZM26.2509 574.838L32.0812 579.752V577.576L26.3526 572.711L26.2509 574.838ZM25.8223 583.651L31.0565 583.432L26.0256 579.441L25.8223 583.651ZM39.173 489.703L39.258 485.799L31.5392 488.077L33.1278 490.449C33.1278 490.449 35.6059 490.142 39.173 489.703ZM38.6632 513.006L38.7971 507.037L35.3317 505.778V509.887L38.6632 513.006ZM37.9707 545.181L38.4972 520.726L38.631 514.626L35.3317 511.542V545.45L37.9707 545.181ZM37.3759 572.589L37.7299 556.255L36.5984 556.361L35.3317 557.343V571.148L37.3759 572.589ZM35.3317 580.338V582.495L36.1903 583.212L37.1455 583.173L37.1712 581.9L35.3317 580.338ZM37.2034 580.353L37.2948 576.268L35.3317 574.916V578.761L37.2034 580.353ZM33.8629 442.531L40.0523 449.04L40.2029 442.013L33.8629 442.531ZM40.3368 435.962L40.3574 434.884L36.3731 436.279L40.3368 435.962ZM64.7417 434.014L65.0803 426.212L46.4245 432.755L46.3382 435.483L64.7417 434.014ZM63.0206 473.184L64.4791 440.003L46.14 441.52L45.6997 454.98L63.0206 473.184ZM62.8275 477.624L62.9446 474.862L45.6469 456.678L44.7883 482.953L62.8275 477.624ZM62.4246 486.863L62.7734 478.849L44.751 484.173L44.5901 489.034C51.23 488.214 58.9385 487.268 62.4246 486.863ZM61.6843 503.645L61.8401 500.2H52.5765L61.6843 503.645ZM61.4693 508.526L61.5608 506.506L48.0117 501.83H44.1768L44.1717 501.839L61.4693 508.526ZM46.5854 520.419L60.3867 533.341L60.9763 519.877L61.1797 515.178L43.9464 508.911L43.6568 517.681L46.5854 520.419ZM50.6881 543.898L60.2464 536.46L60.3172 534.927L44.89 520.487L43.6078 519.286L43.5654 520.536L42.7827 544.693L50.6881 543.898ZM59.9632 542.956L60.1821 538.031L52.9306 543.668L59.9632 542.956ZM41.6562 579.265L41.5327 582.988L46.7515 582.773L41.6562 579.265ZM51.5145 582.568L58.2408 582.29L59.4689 554.185L42.4171 555.805L41.7683 575.693L51.5145 582.568ZM35.3432 391.302L65.2567 422.165L66.8117 386.784L35.3432 391.302ZM67.1181 379.761L67.1876 378.107L66.7267 377.58L39.6712 384.022L67.1181 379.761ZM69.0967 334.595L42.058 337.314L68.4968 348.265L69.0967 334.595ZM95.3052 554.727L95.6283 545.547L87.2106 546.137L87.132 555.073L87.7049 555.049L95.3052 554.727ZM95.0954 560.588L87.6508 560.89L87.0805 560.914L86.9054 580.635L94.4067 580.111L95.0954 560.588ZM13.2014 551.266L12.5899 565.175L18.3442 569.616L19.235 550.768L13.2014 551.266ZM11.7582 584.243L17.6683 583.993L18.0933 574.921L12.3479 570.729L11.7582 584.243ZM126.919 579.88V559.285L118.675 559.622L117.65 580.583L126.919 579.88ZM117.65 635.929L130.776 635.616V628.208L117.65 628.35V635.929ZM131.06 646.378V640.955H124.216L131.06 646.378ZM133.227 559.48L132.685 559.05L131.06 559.115V579.567L132.798 579.435L133.227 559.48ZM133.398 551.511L131.06 549.525V552.263L132.15 553.18L133.366 553.131L133.398 551.511ZM133.554 544.346L131.06 542.629V547.519L133.442 549.544L133.554 544.346ZM134.106 518.892L132.67 519.029L131.06 520.277V537.837L133.656 539.666L134.106 518.892ZM135.255 465.956L131.06 462.027V505.149L134.413 504.812L135.255 465.956ZM135.464 456.302L131.06 454.702V459.928L135.297 463.897L135.464 456.302ZM136.049 429.291L126.238 432.19L128.255 435.21C128.255 435.21 131.409 434.82 135.941 434.259L136.049 429.291ZM137.014 384.734L127.214 374.436L126.743 374.476L125.728 398.462H128.255V409.945H125.981L124.988 430.316L125.38 430.906L136.081 427.744L137.014 384.734ZM137.025 645.324L148.777 639.814L137.025 640.092V645.324ZM137.025 649.481L143.08 653.615H155.294V639.662L152.478 639.731L137.025 646.968V649.481ZM158.689 572.988L141.837 558.676L138.817 558.797L157.375 574.443L158.689 572.988ZM159.735 562.354L153.685 558.192L144.083 558.582L159.333 571.535L159.735 562.354ZM159.929 557.938L159.558 557.953L159.917 558.201L159.929 557.938ZM161.758 516.261L140.072 518.326L139.245 543.614L151.641 552.36L160.191 552.004L161.758 516.261ZM162.659 495.721L153.438 502.889L162.385 501.981L162.659 495.721ZM162.83 491.772L141.584 471.88L140.533 504.192L150.59 503.177L162.744 493.724L162.83 491.772ZM163.93 466.658L142.013 458.689L141.649 469.841L162.922 489.757L163.93 466.658ZM164.412 455.629L147.184 449.68H142.308L142.303 449.695L164.3 458.196L164.412 455.629ZM164.766 447.61H152.987L164.573 451.989L164.766 447.61ZM165.957 420.453L143.038 427.226L142.834 433.41C151.277 432.365 161.082 431.165 165.512 430.647L165.957 420.453ZM166.177 415.387L144.174 392.259L143.085 425.674L166.027 418.896L166.177 415.387ZM168.124 371.055L144.803 372.983L144.244 390.097L166.274 413.249L168.124 371.055ZM168.891 353.516L145.167 361.836L145.055 365.307L168.457 363.437L168.891 353.516ZM138.945 552.897L145.58 552.619L139.101 548.158L138.945 552.897ZM141.283 626.573L147.34 631.136V634.411H154.725V626.573H141.283ZM153.497 578.747L155.181 576.878L138.591 563.731L138.097 578.977L153.497 578.747ZM137.421 365.917L137.448 364.539L132.38 366.316L137.421 365.917ZM129.189 374.271L137.062 382.547L137.255 373.607L129.189 374.271ZM169.025 350.484L129.478 309.691L127.075 366.609L137.485 362.958L137.846 346.332H145.672L145.216 360.246L168.96 351.919L169.025 350.484ZM171.091 303.371L131.071 309.12L169.116 348.367L171.091 303.371ZM171.574 292.338L170.983 291.669L136.579 299.863L171.482 294.44L171.574 292.338ZM171.675 289.989L172.941 261.153L132.272 243.447L132.197 245.267L171.589 290.014L171.675 289.989ZM173.998 237.005L139.61 240.461L173.236 254.389L173.998 237.005ZM182.397 676.122V641.673L178.862 638.456H174.191L173.312 671.066L182.397 676.122ZM189.617 575.609L189.928 556.289L176.127 557.275L175.708 570.246L185.047 575.99L189.617 575.609ZM190.728 506.467L177.746 507.375L176.32 551.326L190.025 550.364L190.728 506.467ZM174.191 623.415V629.96L179.115 632.068V626.285L174.191 623.415ZM134.165 198.656L132.782 231.422L174.475 226.142L175.859 194.528L134.165 198.656ZM129.89 299.945L169.883 290.419L132.101 247.502L129.89 299.945ZM123.872 453.194L126.919 456.049V453.198L123.921 452.106L123.872 453.194ZM121.287 506.139L126.919 505.569V458.158L123.77 455.205L121.287 506.139ZM120.279 526.734L126.919 521.57V519.574L120.601 520.18L120.279 526.734ZM120.118 530.111L126.919 534.913V523.493L120.183 528.735L120.118 530.111ZM119.737 537.9L126.919 544.006V539.783L119.881 534.942L119.737 537.9ZM119.512 542.531L126.919 548.777V546.011L119.641 539.823L119.512 542.531ZM118.96 553.736L125.622 553.453L119.222 548.383L118.96 553.736ZM236.673 571.695C236.395 570.271 235.638 566.699 234.646 564.624C233.385 561.978 231.744 560.257 232.501 558.534C233.257 556.816 234.517 555.552 234.517 555.205C234.517 555.103 234.608 554.297 234.759 553.082L196.59 555.811L196.419 575.043L236.673 571.695ZM247.139 614.572V617.559H239.822L250.185 627.345L269.86 626.266V603.895H274.151V626.032L309.992 624.065V591.699L222.154 597.575L247.139 614.572ZM265.692 636.158L269.86 639.287V631.454L255.415 632.283L259.76 636.388H255.217L252.192 633.634H242.112L269.86 653.381V644.533L262.79 639.262L265.692 636.158ZM239.57 661.599L256.96 674.419L269.86 673.423V658.778L239.57 637.573V661.599ZM239.57 673.594L259.003 686.912V682.32L255.72 681.173V677.727L239.57 667.006V673.594ZM239.822 707.526L246.828 701.499L258.371 711.143V690.992L239.822 679.279V707.526ZM274.151 642.513L284.375 650.189V630.614L274.151 631.205V642.513ZM274.151 656.435L284.375 663.712V655.362L274.151 647.734V656.435ZM274.151 673.092L284.375 672.306V668.938L274.151 661.78V673.092ZM288.284 653.126L297.033 659.696L309.954 631.693C309.96 630.746 309.965 629.888 309.971 629.136L288.284 630.39V653.126ZM288.284 666.499L292.506 669.499L295.273 663.497L288.284 658.28V666.499ZM309.874 648.236L308.27 646.328L300.697 662.448L309.842 669.314C309.825 663.536 309.842 655.683 309.874 648.236ZM300.402 671.066L304.44 674.741H309.874V674.389L298.922 666.22L296.501 671.369L300.402 671.066ZM307.847 751.966H345.077V748.149L331.699 738.931H307.847V751.966ZM326.904 768.67H344.572V764.366H322.173L326.904 768.67ZM344.32 783.946V771.427H329.934L344.32 783.946ZM347.979 698.307L352.269 701.48V694.476L347.979 695.834V698.307ZM347.979 711.538L352.269 714.583V706.628L347.979 703.325V711.538ZM347.979 723.89H352.269V719.097L347.979 716.101V723.89ZM350.628 783.487L356.812 771.427H350.628V783.487ZM358.835 723.68L355.428 721.298V723.89H358.835V723.68ZM358.835 711.689L355.428 709.063V716.828L358.835 719.248V711.689ZM358.835 692.403L355.428 693.481V703.812L358.835 706.326V692.403ZM330.396 689.703L318.07 680.504V688.523L321.604 692.427L330.396 689.703ZM344.068 708.756V700.308L341.086 698.01L332.681 700.665L344.068 708.756ZM328.669 730.893L334.199 734.914H338.517L333.088 730.893H328.669ZM329.806 723.89H344.068V713.367L327.993 702.148L317.689 705.403V716.081L329.806 723.89ZM357.527 626.393L339.133 627.457L317.249 671.7V674.741H318.07V675.497L335.063 688.259L343.939 685.512V657.631H348.741V684.023L352.017 683.009V678.646H355.177V682.032L357.95 681.173L357.527 626.393ZM357.252 590.816L347.914 609.698L357.473 619.644L357.252 590.816ZM357.113 573.101L347.86 562.096L343.849 570.632L350.628 577.825H356.926L357.146 577.366L357.113 573.101ZM356.893 544.362L356.175 544.414L349.722 558.143C351.749 560.539 354.695 563.882 357.065 566.546L356.893 544.362ZM356.507 494.886L323.547 497.189L356.722 530.375L356.78 530.243L356.507 494.886ZM334.779 466.62C333.287 466.766 329.392 467.132 327.285 467.132C324.893 467.132 320.355 464.706 317.818 463.135V491.455L318.199 491.836L354.405 489.361L334.779 466.62ZM317.818 446.972V454.37C318.536 454.966 319.116 455.453 319.459 455.766C321.475 457.601 325.391 457.947 325.391 457.947C325.391 457.947 326.265 457.947 327.29 457.947L317.818 446.972ZM341.703 609.634L340.641 608.371L331.323 597.282L318.965 623.572L335.465 622.669L341.703 609.634ZM341.666 622.327L353.257 621.693L345.849 613.87L341.666 622.327ZM334.724 590.045L333.185 593.314C335.165 595.769 339.627 600.821 342.674 604.247L343.746 605.359L351.62 588.917L334.724 590.045ZM352.747 538.988L352.945 538.553L317.818 501.956V541.428L352.747 538.988ZM317.818 547.153V564.951L336.999 563.359L340.019 566.562L350.038 544.849L317.818 547.153ZM317.249 657.011V660.725L318.381 658.358L317.249 657.011ZM320.393 654.151L333.003 627.807L317.249 628.716V650.613C318.392 651.906 319.486 653.137 320.393 654.151ZM317.249 591.216V615.896L329.001 590.43L317.249 591.216ZM309.992 547.709L303.378 548.182C303.432 548.417 303.465 548.655 303.465 548.89C303.465 550.959 303.465 553.14 303.465 553.14H307.213V554.863H303.465C303.465 554.863 304.816 558.192 305.448 559.568C305.926 560.617 307.653 564.121 308.448 565.732L309.992 565.605V547.709ZM309.992 498.136L288.376 499.643C288.762 501.874 289.272 504.129 289.926 505.368C291.315 508.013 292.699 513.065 292.699 514.558C292.699 516.051 297.499 521.078 298.004 524.016C298.508 526.958 297.499 534.078 297.875 536.031C298.256 537.983 300.273 540.047 300.777 542.346C300.798 542.434 300.825 542.526 300.853 542.614L309.992 541.975V498.136ZM309.992 460.543C308.512 460.021 305.948 459.075 304.564 458.289C302.547 457.142 302.547 457.142 302.547 457.142C302.547 457.142 303.556 460.129 302.799 460.816C302.043 461.505 298.38 461.852 296.738 460.358C295.102 458.865 293.208 458.635 293.208 458.635C293.208 458.635 289.797 464.033 288.156 465.526C286.52 467.019 284.117 467.591 284.117 467.591C284.117 467.591 282.605 468.377 284.246 468.904C285.887 469.431 286.326 469.83 286.326 469.83C286.326 469.83 286.01 471.265 285.254 471.265C284.497 471.265 281.343 471.265 281.343 472.183C281.343 473.105 283.742 475.515 284.749 478.268C285.759 481.026 286.391 483.666 286.391 485.16C286.391 486.653 287.276 491.874 287.529 493.685C287.539 493.758 287.549 493.841 287.561 493.929L308.721 492.485L301.346 484.798L306.27 479.903L309.992 483.626V460.543ZM254.455 551.676C254.455 552.106 255.468 554.976 255.468 556.469C255.468 557.962 254.079 558.192 254.079 559.568C254.079 560.949 255.914 562.267 255.346 562.784C254.777 563.301 253.827 564.737 254.079 565.654C254.262 566.312 255.146 568.66 255.641 570.125L288.295 567.411C287.898 565.561 287.168 562.897 286.01 561.374C284.117 558.88 283.108 556.816 282.1 554.171C281.451 552.482 281.016 550.793 280.781 549.797L254.455 551.676ZM278.442 541.428C277.557 538.671 274.778 534.879 272.51 530.863C270.235 526.841 268.219 522.366 266.073 518.115C263.927 513.869 262.79 510.995 262.79 510.995C262.79 510.995 261.149 518.964 260.516 522.214C259.889 525.465 259.889 535.343 258.88 538.095C257.866 540.853 256.139 543.83 255.49 545.786L279.251 544.123C278.978 543.171 278.694 542.218 278.442 541.428ZM236.158 518.804C236.158 518.804 236.036 507.262 235.784 504.192C235.757 503.895 235.735 503.607 235.719 503.323L197.035 506.028L196.644 549.9L235.564 547.177C235.864 545.171 236.202 543.117 236.539 541.428C237.549 536.373 238.304 532.127 239.061 528.334C239.822 524.548 240.579 518.804 240.579 518.804H236.158ZM364.516 710.518L366.913 712.29V717.917L364.516 716.067V723.773H371.204V688.494L364.516 690.606V710.518ZM376 717.115L390.149 682.511L376 686.98V717.115ZM376.632 757.305H379.03L384.013 745.022L376.503 739.965L376.632 757.305ZM376.884 798.069H409.443V786.815H376.884V798.069ZM385.97 740.195L387.51 736.407H381.175L385.97 740.195ZM395.803 715.979L385.976 709.493L379.786 723.431H392.777L395.803 715.979ZM397.24 712.426L407.629 686.824L398.731 680.754L387.537 705.97L397.24 712.426ZM414.49 669.92L411.213 671.134L408.557 676.693L401.853 678.811L409.057 683.311L414.49 669.92ZM487.185 825.169H497.855V820.347H487.185V825.169ZM501.073 825.169H507.123L501.073 822.172V825.169ZM511.859 820.347H504.95L511.859 823.681V820.347ZM514.322 824.866L528.332 831.625V820.347H514.322V824.866ZM363.679 515.31L373.655 493.685L363.523 494.393L363.679 515.31ZM363.791 531.244C365.588 533.327 367.729 535.753 369.557 537.812L374.857 537.441L383.685 518.213L373.94 506.618L363.77 528.246L363.791 531.244ZM363.84 537.499L363.877 537.539L363.84 537.49V537.499ZM364.011 561.061L370.947 545.952L368.892 543.502L363.882 543.864L364.011 561.061ZM395.652 492.148L380.231 493.226L375.795 502.665C378.617 506.003 383.299 511.263 385.665 513.909L395.652 492.148ZM409.158 462.739L399.798 451.598L388.727 475.155C391.178 478.103 395.679 483.173 398.382 486.209L409.158 462.739ZM421.635 435.582L412.457 424.664L401.66 447.635C403.73 450.178 408.123 455.156 411.105 458.503L421.635 435.582ZM382.967 487.405L393.25 486.702L386.866 479.108L382.967 487.405ZM-6.10352e-05 548.207L8.52332 547.509L9.42957 521.82L9.90198 508.526H15.0616L14.4887 521.629L13.3777 547.108L19.4333 546.61L20.4361 521.405L22.4057 472.031L20.2276 470.046V459.03L23.0057 455.414L28.7561 299.755L34.9133 299.394L37.381 301.336L70.6956 298.106L70.8411 294.875H77.1914L80.1677 297.222L79.5626 315.865L82.1476 317.812V321.062H79.3901L76.1693 420.245L72.9484 519.428L72.1978 542.522L82.3304 541.828L82.6947 519.063L82.7719 514.214L80.0389 514.441V509.16L82.8582 508.928L83.0435 497.389L83.1349 491.552L83.794 450.441L83.8803 445.157L84.9307 379.659H88.7025L88.1169 444.81L88.0692 450.09L87.7049 491.363L87.6508 497.204L87.5491 508.542L88.1169 508.497L96.9672 507.769L98.7218 458.196H105.282L103.141 507.262L110.838 506.632L114.62 411.785L111.847 409.258V395.251L115.382 390.654L122.698 192.693L130.524 192.234L133.667 194.708L176.03 190.599L176.213 186.49H184.291L188.077 189.477L187.305 213.18L190.599 215.659V219.793H187.091L177.939 501.431L190.824 500.546L194.134 294.313H198.929L197.088 500.118L234.807 497.535C234.63 497.086 234.415 496.638 234.142 496.183C232.625 493.656 231.112 488.721 231.363 486.54C231.615 484.354 232.249 483.666 231.744 482.29C231.241 480.914 229.974 478.04 230.86 476.317C231.744 474.594 234.898 473.105 234.898 473.105C234.898 473.105 238.181 470.924 238.181 467.937C238.181 464.951 237.8 463.345 238.557 462.652C239.319 461.964 239.822 461.275 239.822 461.275C239.822 461.275 240.831 460.241 239.946 457.142C239.061 454.043 239.57 448.875 241.082 446.464C242.595 444.053 244.489 443.477 243.862 441.984C243.228 440.49 242.092 435.093 242.473 432.111C242.847 429.124 241.716 422.122 242.976 419.594C244.236 417.065 243.609 412.82 244.617 410.98C245.627 409.145 250.298 406.388 253.576 404.782C256.858 403.172 259.889 401.908 259.889 401.908C259.889 401.908 260.141 399.384 261.401 399.039C262.662 398.697 264.051 399.156 264.051 399.156C264.051 399.156 264.303 396.744 266.073 396.744C267.838 396.744 270.364 396.857 271.121 397.545C271.876 398.233 271.876 398.233 271.876 398.233C271.876 398.233 271.941 395.305 273.389 393.987C274.842 392.665 277.053 391.806 277.053 391.806C277.053 391.806 276.8 390.541 277.053 388.59C277.305 386.637 278.442 383.768 278.442 383.768C276.484 381.986 275.792 379.747 278.442 378.6C278.442 378.6 284.375 370.792 293.208 372.397C302.043 374.008 305.32 380.894 305.32 384.914C305.32 388.937 302.923 394.099 302.923 394.099C302.923 394.099 303.465 395.134 303.465 396.397C303.465 397.662 299.897 394.904 299.897 394.904C299.897 394.904 299.328 397.257 298.256 398.233C297.184 399.208 296.615 399.726 296.615 399.726C296.615 399.726 296.234 401.566 294.216 404.089C292.195 406.617 288.408 408.457 288.408 408.457C288.408 408.457 287.903 413.279 288.665 414.655C289.421 416.031 293.461 418.446 294.088 420.741C294.721 423.039 297.248 424.762 297.875 426.025C298.508 427.284 299.264 430.388 299.264 430.388C299.264 430.388 303.304 433.258 303.807 436.704C304.312 440.15 305.133 443.995 306.334 445.083C306.747 445.459 308.19 446.625 309.992 448.07V323.365H317.818V435.327L337.155 458.435C338.093 458.708 338.903 459.104 339.901 460.012C341.542 461.505 342.663 465.019 342.663 465.019L356.405 481.446L355.681 387.672H362.745L363.481 488.737L376.347 487.858L420.047 393.182L425.851 396.169L414.313 420.711C416.828 423.698 421.012 428.417 423.592 431.311L432.667 411.556H438.975L404.363 485.941L464.471 481.831V487.34L401.67 491.728L380.585 537.041L458.163 531.614V537.129L377.877 542.862L362.998 574.843V620.541L410.199 617.331V623.07L364.489 625.993L363.501 626.056V680.027L395.105 671.188L406.413 645.347H412.092L403.151 668.938L415.251 665.557L418.024 657.519H423.834L398.452 723.431H437.715V729.629H396.065L395.003 732.386H416.132V736.407H393.453L385.719 756.499L461.691 754.435V760.404L384.2 762.244L381.679 765.688H413.481V769.359L383.444 770.74L387.735 773.263L385.467 776.02L381.175 773.033L377.389 779.924H406.413V775.562L444.023 774.185L451.345 779.236V785.897H449.833V801.974L482.139 800.826L488.955 803.808V812.076H487.185V817.932H497.855V794.507H501.073V817.932H511.859V802.085H514.322V817.932H528.332V812.421H531.55V817.932H546.504V820.347H531.55V833.407H523.789L514.322 828.726V833.407H511.859V828.438H501.073V833.407H497.855V828.438H487.185V833.407H-6.10352e-05V584.735L7.21539 584.433L7.82037 567.42L2.16266 563.296V557.128L8.02509 561.652L8.37903 551.667L-6.10352e-05 552.355V548.207Z" fill="#0A1A34"/>
</g>
<defs>
<filter id="filter0_d_4_6" x="-4" y="0" width="682.799" height="841.407" filterUnits="userSpaceOnUse" color-interpolation-filters="sRGB">
<feFlood flood-opacity="0" result="BackgroundImageFix"/>
<feColorMatrix in="SourceAlpha" type="matrix" values="0 0 0 0 0 0 0 0 0 0 0 0 0 0 0 0 0 0 127 0" result="hardAlpha"/>
<feOffset dy="4"/>
<feGaussianBlur stdDeviation="2"/>
<feComposite in2="hardAlpha" operator="out"/>
<feColorMatrix type="matrix" values="0 0 0 0 0 0 0 0 0 0 0 0 0 0 0 0 0 0 0.25 0"/>
<feBlend mode="normal" in2="BackgroundImageFix" result="effect1_dropShadow_4_6"/>
<feBlend mode="normal" in="SourceGraphic" in2="effect1_dropShadow_4_6" result="shape"/>
</filter>
</defs>
</svg>
