<svg width="345" height="330" viewBox="0 0 345 330" fill="none" xmlns="http://www.w3.org/2000/svg">
<path d="M290.167 201.481L289.65 190.538L293.473 190.695L293.954 201.718L290.167 201.481ZM289.232 181.657L292.961 178.936L293.341 187.704L289.511 187.542L289.232 181.657ZM288.493 165.99L292.408 166.313L292.802 175.334L289.071 178.214L288.493 165.99ZM299.978 166.938L300.267 166.962L300.29 169.541L300.394 181.075L296.039 180.775L295.9 176.793L299.568 174.115V170.114L295.765 173.049L295.535 166.572L299.978 166.938ZM308.153 183.984L308.725 201.611L303.229 201.227L303.066 191.085L306.263 191.216V188.246L303.019 188.109L302.947 183.621L308.153 183.984ZM325.63 60.1623L326.186 73.3054L309.464 71.1869L308.908 58.5068L325.63 60.1623ZM326.421 78.859L310.621 96.806L310.588 96.7964L310.079 85.2286L326.391 78.1272L326.421 78.859ZM327.346 100.789L311.305 96.9679L326.459 79.7551L327.346 100.789ZM328.476 127.526L324.301 126.062L324.156 119.394H321.018L321.201 124.974L311.677 121.634L311.65 121.059L327.512 104.697L328.476 127.526ZM329.015 140.301H328.002V144.908H328.914L329.313 153.078L329.154 153.314L324.864 152.045L324.489 134.795L328.421 130.665L328.61 130.682L329.015 140.301ZM329.759 162.253L328.536 163.398V162.253L329.74 161.817L329.759 162.253ZM330.172 170.667L330.795 183.489L328.536 183.26V164.242L329.8 163.06L330.172 170.667ZM331.201 191.748L328.536 189.677V188.878L331.072 189.119L331.201 191.748ZM331.266 193.102L328.536 195.029V190.449L331.239 192.552L331.266 193.102ZM331.419 196.226L328.536 198.676V196.983L331.362 195.039L331.419 196.226ZM331.51 198.083L328.536 200.59V199.48L331.458 196.998L331.51 198.083ZM331.729 202.579L329.059 202.467L331.625 200.431L331.729 202.579ZM324.919 154.659L324.875 152.667L328.812 153.829L328.002 155.039C328.002 155.039 326.738 154.883 324.919 154.659ZM325.179 166.545L325.11 163.5L326.878 162.858V164.954L325.179 166.545ZM325.532 182.956L325.263 170.482L325.195 167.371L326.878 165.798V183.093L325.532 182.956ZM325.835 196.936L325.655 188.604L326.232 188.659L326.878 189.159V196.201L325.835 196.936ZM326.878 200.889V201.989L326.44 202.355L325.953 202.335L325.94 201.685L326.878 200.889ZM325.923 200.896L325.877 198.813L326.878 198.123V200.084L325.923 200.896ZM327.627 130.598L324.47 133.918L324.393 130.334L327.627 130.598ZM324.325 127.247L324.315 126.697L326.347 127.409L324.325 127.247ZM311.877 126.254L311.704 122.274L321.22 125.612L321.264 127.003L311.877 126.254ZM312.755 146.233L312.011 129.308L321.365 130.082L321.59 136.948L312.755 146.233ZM312.853 148.497L312.794 147.089L321.617 137.814L322.055 151.216L312.853 148.497ZM313.059 153.21L312.881 149.122L322.074 151.838L322.156 154.318C318.769 153.899 314.837 153.417 313.059 153.21ZM313.436 161.77L313.357 160.013H318.082L313.436 161.77ZM313.546 164.26L313.499 163.229L320.41 160.844H322.366L322.369 160.849L313.546 164.26ZM321.138 170.326L314.098 176.917L313.798 170.049L313.694 167.652L322.484 164.456L322.632 168.929L321.138 170.326ZM319.045 182.302L314.17 178.508L314.134 177.726L322.003 170.361L322.657 169.748L322.678 170.386L323.078 182.707L319.045 182.302ZM314.314 181.821L314.203 179.309L317.901 182.185L314.314 181.821ZM323.652 200.341L323.715 202.24L321.053 202.131L323.652 200.341ZM318.624 202.026L315.193 201.884L314.566 187.549L323.264 188.375L323.595 198.519L318.624 202.026ZM326.872 104.468L311.614 120.21L310.821 102.163L326.872 104.468ZM310.665 98.5809L310.629 97.7374L310.864 97.4685L324.665 100.754L310.665 98.5809ZM309.656 75.5433L323.447 76.9299L309.962 82.5158L309.656 75.5433ZM296.288 187.825L296.123 183.143L300.416 183.444L300.456 188.002L300.164 187.99L296.288 187.825ZM296.395 190.815L300.192 190.969L300.483 190.981L300.572 201.04L296.746 200.773L296.395 190.815ZM338.166 186.06L338.478 193.154L335.543 195.42L335.088 185.806L338.166 186.06ZM338.902 202.88L335.888 202.753L335.671 198.125L338.601 195.987L338.902 202.88ZM280.162 200.655V190.15L284.367 190.322L284.89 201.013L280.162 200.655ZM284.89 229.244L278.195 229.084V225.306L284.89 225.378V229.244ZM278.05 234.573V231.807H281.541L278.05 234.573ZM276.945 190.25L277.221 190.03L278.05 190.063V200.495L277.164 200.428L276.945 190.25ZM276.858 186.185L278.05 185.172V186.568L277.494 187.036L276.874 187.011L276.858 186.185ZM276.778 182.531L278.05 181.655V184.149L276.835 185.182L276.778 182.531ZM276.496 169.547L277.229 169.617L278.05 170.254V179.21L276.726 180.143L276.496 169.547ZM275.911 142.546L278.05 140.542V162.537L276.34 162.365L275.911 142.546ZM275.804 137.622L278.05 136.806V139.472L275.889 141.496L275.804 137.622ZM275.506 123.844L280.51 125.323L279.481 126.864C279.481 126.864 277.872 126.665 275.561 126.379L275.506 123.844ZM275.013 101.118L280.012 95.8651L280.252 95.8854L280.77 108.12H279.481V113.977H280.641L281.147 124.367L280.948 124.668L275.489 123.055L275.013 101.118ZM275.008 234.036L269.014 231.225L275.008 231.367V234.036ZM275.008 236.156L271.919 238.265H265.689V231.148L267.126 231.183L275.008 234.874V236.156ZM263.958 197.14L272.553 189.839L274.094 189.901L264.628 197.882L263.958 197.14ZM263.424 191.716L266.51 189.593L271.408 189.792L263.629 196.398L263.424 191.716ZM263.325 189.463L263.514 189.471L263.331 189.597L263.325 189.463ZM262.392 168.205L273.454 169.258L273.875 182.157L267.553 186.618L263.191 186.436L262.392 168.205ZM261.933 157.728L266.636 161.384L262.072 160.921L261.933 157.728ZM261.845 155.714L272.682 145.568L273.219 162.049L268.088 161.531L261.889 156.71L261.845 155.714ZM261.285 142.904L272.463 138.84L272.649 144.528L261.799 154.686L261.285 142.904ZM261.038 137.279L269.826 134.244H272.313L272.316 134.252L261.095 138.588L261.038 137.279ZM260.858 133.189H266.866L260.956 135.422L260.858 133.189ZM260.25 119.336L271.941 122.791L272.045 125.946C267.738 125.413 262.737 124.8 260.478 124.536L260.25 119.336ZM260.138 116.753L271.361 104.956L271.916 122L260.215 118.542L260.138 116.753ZM259.145 94.1403L271.041 95.1237L271.326 103.853L260.089 115.662L259.145 94.1403ZM258.754 85.194L270.855 89.4381L270.912 91.2082L258.975 90.2547L258.754 85.194ZM274.028 186.892L270.644 186.75L273.949 184.475L274.028 186.892ZM272.836 224.472L269.746 226.799V228.469H265.979V224.472H272.836ZM266.606 200.077L265.747 199.124L274.209 192.418L274.461 200.194L266.606 200.077ZM274.806 91.5194L274.792 90.8169L277.377 91.7232L274.806 91.5194ZM279.005 95.7808L274.989 100.002L274.89 95.4421L279.005 95.7808ZM258.686 83.6479L278.857 62.8405L280.083 91.8725L274.773 90.0104L274.589 81.53H270.597L270.83 88.6268L258.718 84.3797L258.686 83.6479ZM257.632 59.6168L278.045 62.5495L258.639 82.5678L257.632 59.6168ZM257.386 53.9891L257.687 53.648L275.235 57.8275L257.432 55.0615L257.386 53.9891ZM257.334 52.7913L256.688 38.0829L277.432 29.0518L277.47 29.9801L257.378 52.8038L257.334 52.7913ZM256.149 25.766L273.689 27.5283L256.538 34.6328L256.149 25.766ZM251.865 249.745V232.173L253.668 230.533H256.051L256.499 247.166L251.865 249.745ZM248.182 198.477L248.023 188.622L255.063 189.125L255.276 195.741L250.513 198.671L248.182 198.477ZM247.616 163.209L254.237 163.672L254.965 186.091L247.974 185.6L247.616 163.209ZM256.051 222.861V226.199L253.539 227.275V224.325L256.051 222.861ZM276.466 6.20534L277.172 22.9181L255.906 20.2249L255.2 4.09948L276.466 6.20534ZM278.647 57.8694L258.248 53.0105L277.519 31.12L278.647 57.8694ZM281.717 136.037L280.162 137.493V136.039L281.692 135.482L281.717 136.037ZM283.035 163.042L280.162 162.751V138.568L281.768 137.062L283.035 163.042ZM283.549 173.547L280.162 170.913V169.895L283.385 170.204L283.549 173.547ZM283.631 175.27L280.162 177.719V171.894L283.598 174.568L283.631 175.27ZM283.826 179.242L280.162 182.357V180.203L283.752 177.734L283.826 179.242ZM283.941 181.605L280.162 184.791V183.379L283.875 180.223L283.941 181.605ZM284.222 187.32L280.824 187.175L284.088 184.589L284.222 187.32ZM224.18 196.48C224.322 195.754 224.708 193.932 225.215 192.874C225.857 191.524 226.695 190.646 226.308 189.767C225.923 188.891 225.28 188.246 225.28 188.069C225.28 188.017 225.234 187.606 225.157 186.986L244.625 188.378L244.713 198.188L224.18 196.48ZM218.842 218.35V219.874H222.574L217.288 224.865L207.253 224.315L207.253 212.904H205.064L205.064 224.196L186.783 223.192V206.683L231.586 209.681L218.842 218.35ZM209.379 229.361L207.253 230.957V226.961L214.621 227.384L212.405 229.478H214.722L216.265 228.073H221.406L207.253 238.145V233.632L210.859 230.944L209.379 229.361ZM222.703 242.337L213.833 248.876L207.253 248.368V240.898L222.703 230.082V242.337ZM222.703 248.455L212.791 255.249V252.906L214.465 252.321V250.564L222.703 245.095V248.455ZM222.574 265.763L219.001 262.689L213.113 267.608V257.329L222.574 251.355V265.763ZM205.064 232.602L199.849 236.517V226.533L205.064 226.834V232.602ZM205.064 239.703L199.849 243.415V239.156L205.064 235.265V239.703ZM205.064 248.199L199.849 247.798V246.081L205.064 242.429V248.199ZM197.855 238.016L193.393 241.367L186.802 227.083C186.799 226.6 186.796 226.162 186.794 225.779L197.855 226.419V238.016ZM197.855 244.836L195.702 246.367L194.29 243.305L197.855 240.644V244.836ZM186.843 235.521L187.661 234.548L191.524 242.77L186.859 246.272C186.868 243.325 186.859 239.32 186.843 235.521ZM191.674 247.166L189.615 249.04H186.843V248.861L192.43 244.694L193.664 247.32L191.674 247.166ZM187.877 288.43H168.887V286.483L175.711 281.782H187.877V288.43ZM178.157 296.951H169.145V294.755H180.57L178.157 296.951ZM169.273 304.742V298.357H176.611L169.273 304.742ZM167.407 261.061L165.219 262.679V259.107L167.407 259.799V261.061ZM167.407 267.809L165.219 269.363V265.305L167.407 263.62V267.809ZM167.407 274.11H165.219V271.665L167.407 270.137V274.11ZM166.056 304.508L162.901 298.357H166.056V304.508ZM161.87 274.003L163.607 272.788V274.11H161.87V274.003ZM161.87 267.886L163.607 266.547V270.508L161.87 271.742V267.886ZM161.87 258.049L163.607 258.599V263.869L161.87 265.151V258.049ZM176.375 256.672L182.662 251.98V256.07L180.86 258.061L176.375 256.672ZM169.402 266.39V262.081L170.923 260.909L175.21 262.264L169.402 266.39ZM177.256 277.682L174.436 279.733H172.233L175.002 277.682H177.256ZM176.677 274.11H169.402V268.743L177.601 263.02L182.857 264.68V270.127L176.677 274.11ZM162.537 224.38L171.919 224.923L183.081 247.489V249.04H182.662V249.426L173.995 255.936L169.468 254.534V240.313H167.018V253.775L165.347 253.257V251.032H163.735V252.759L162.321 252.321L162.537 224.38ZM162.677 206.233L167.44 215.864L162.565 220.937L162.677 206.233ZM162.748 197.197L167.468 191.584L169.514 195.938L166.056 199.607H162.844L162.731 199.373L162.748 197.197ZM162.86 182.538L163.226 182.565L166.518 189.567C165.484 190.79 163.982 192.495 162.773 193.854L162.86 182.538ZM163.057 157.302L179.869 158.477L162.947 175.404L162.918 175.337L163.057 157.302ZM174.14 142.885C174.901 142.959 176.887 143.146 177.962 143.146C179.182 143.146 181.497 141.909 182.791 141.107V155.552L182.597 155.747L164.129 154.484L174.14 142.885ZM182.791 132.863V136.636C182.425 136.94 182.129 137.189 181.954 137.348C180.926 138.285 178.928 138.461 178.928 138.461C178.928 138.461 178.482 138.461 177.96 138.461L182.791 132.863ZM170.608 215.832L171.15 215.187L175.903 209.531L182.206 222.941L173.79 222.48L170.608 215.832ZM170.627 222.306L164.715 221.983L168.493 217.992L170.627 222.306ZM174.168 205.84L174.953 207.507C173.943 208.759 171.667 211.336 170.113 213.084L169.566 213.651L165.55 205.265L174.168 205.84ZM164.975 179.797L164.874 179.576L182.791 160.909V181.042L164.975 179.797ZM182.791 183.962V193.04L173.007 192.228L171.467 193.862L166.357 182.787L182.791 183.962ZM183.081 239.997V241.892L182.504 240.684L183.081 239.997ZM181.478 238.538L175.046 225.101L183.081 225.565V236.734C182.498 237.393 181.94 238.021 181.478 238.538ZM183.081 206.437V219.026L177.087 206.036L183.081 206.437ZM186.783 184.246L190.156 184.487C190.129 184.607 190.112 184.728 190.112 184.848C190.112 185.904 190.112 187.016 190.112 187.016H188.2V187.895H190.112C190.112 187.895 189.423 189.593 189.101 190.295C188.857 190.83 187.976 192.617 187.571 193.439L186.783 193.374V184.246ZM186.783 158.96L197.809 159.729C197.612 160.867 197.352 162.017 197.018 162.649C196.31 163.998 195.604 166.575 195.604 167.336C195.604 168.098 193.155 170.662 192.898 172.161C192.64 173.661 193.155 177.293 192.963 178.289C192.769 179.285 191.74 180.337 191.483 181.51C191.472 181.555 191.458 181.602 191.445 181.647L186.783 181.321V158.96ZM186.783 139.785C187.538 139.519 188.846 139.036 189.552 138.635C190.581 138.05 190.581 138.05 190.581 138.05C190.581 138.05 190.066 139.574 190.452 139.925C190.837 140.276 192.706 140.453 193.543 139.691C194.378 138.929 195.344 138.812 195.344 138.812C195.344 138.812 197.084 141.565 197.921 142.327C198.755 143.088 199.981 143.38 199.981 143.38C199.981 143.38 200.752 143.781 199.915 144.05C199.078 144.319 198.854 144.522 198.854 144.522C198.854 144.522 199.015 145.254 199.401 145.254C199.787 145.254 201.396 145.254 201.396 145.722C201.396 146.193 200.172 147.422 199.658 148.826C199.144 150.233 198.821 151.58 198.821 152.341C198.821 153.103 198.369 155.766 198.241 156.69C198.235 156.727 198.23 156.769 198.224 156.814L187.431 156.077L191.193 152.157L188.682 149.66L186.783 151.559V139.785ZM215.11 186.269C215.11 186.488 214.594 187.952 214.594 188.714C214.594 189.475 215.302 189.593 215.302 190.295C215.302 190.999 214.367 191.671 214.656 191.935C214.946 192.199 215.431 192.931 215.302 193.399C215.209 193.734 214.758 194.932 214.506 195.679L197.85 194.295C198.052 193.352 198.425 191.992 199.015 191.216C199.981 189.944 200.495 188.891 201.01 187.542C201.341 186.68 201.563 185.819 201.683 185.311L215.11 186.269ZM202.876 181.042C203.327 179.635 204.744 177.702 205.901 175.653C207.062 173.602 208.09 171.319 209.185 169.151C210.279 166.985 210.859 165.519 210.859 165.519C210.859 165.519 211.696 169.584 212.019 171.242C212.339 172.9 212.339 177.938 212.854 179.342C213.37 180.748 214.252 182.267 214.583 183.265L202.463 182.416C202.602 181.931 202.747 181.445 202.876 181.042ZM224.443 169.502C224.443 169.502 224.505 163.615 224.634 162.049C224.648 161.898 224.659 161.751 224.667 161.606L244.398 162.985L244.598 185.363L224.746 183.974C224.593 182.951 224.421 181.903 224.249 181.042C223.734 178.463 223.348 176.298 222.962 174.363C222.574 172.432 222.188 169.502 222.188 169.502H224.443ZM158.972 267.289L157.75 268.193V271.063L158.972 270.12V274.05H155.56V256.055L158.972 257.133V267.289ZM153.115 270.654L145.898 253.004L153.115 255.283V270.654ZM152.792 291.153H151.569L149.027 284.888L152.858 282.309L152.792 291.153ZM152.663 311.946H136.056V306.206H152.663V311.946ZM148.029 282.426L147.244 280.494H150.475L148.029 282.426ZM143.014 270.075L148.026 266.766L151.183 273.876H144.557L143.014 270.075ZM142.28 268.262L136.981 255.204L141.52 252.107L147.23 264.969L142.28 268.262ZM133.482 246.581L135.153 247.201L136.508 250.036L139.928 251.116L136.253 253.412L133.482 246.581ZM96.4025 325.769H90.9604V323.309H96.4025V325.769ZM89.3189 325.769H86.2328L89.3189 324.24V325.769ZM83.8171 323.309H87.3411L83.8171 325.01V323.309ZM82.5609 325.614L75.415 329.062V323.309H82.5609V325.614ZM159.399 167.72L154.31 156.69L159.479 157.051L159.399 167.72ZM159.342 175.847C158.425 176.91 157.333 178.147 156.401 179.198L153.698 179.008L149.195 169.201L154.165 163.287L159.352 174.318L159.342 175.847ZM159.317 179.038L159.298 179.058L159.317 179.033V179.038ZM159.23 191.056L155.692 183.35L156.74 182.1L159.295 182.284L159.23 191.056ZM143.091 155.906L150.956 156.456L153.219 161.27C151.78 162.973 149.392 165.656 148.185 167.005L143.091 155.906ZM136.201 140.905L140.976 135.223L146.623 147.238C145.372 148.742 143.077 151.328 141.698 152.877L136.201 140.905ZM129.837 127.053L134.519 121.485L140.026 133.201C138.97 134.498 136.729 137.037 135.209 138.745L129.837 127.053ZM149.561 153.487L144.316 153.128L147.572 149.254L149.561 153.487ZM344.9 184.5L340.552 184.144L340.09 171.04L339.849 164.26H337.217L337.509 170.943L338.076 183.939L334.987 183.685L334.476 170.829L333.471 145.645L334.582 144.632V139.013L333.165 137.169L330.232 57.7726L327.091 57.5886L325.833 58.579L308.84 56.9314L308.766 55.2832H305.527L304.009 56.4803L304.317 65.9894L302.999 66.983V68.6408H304.405L306.048 119.231L307.691 169.82L308.074 181.6L302.906 181.246L302.72 169.634L302.68 167.161L304.074 167.277V164.583L302.636 164.465L302.542 158.579L302.495 155.602L302.159 134.633L302.115 131.937L301.579 98.5289H299.655L299.954 131.76L299.978 134.453L300.164 155.505L300.192 158.484L300.244 164.268L299.954 164.245L295.44 163.874L294.545 138.588H291.199L292.291 163.615L288.365 163.294L286.436 114.915L287.85 113.626V106.482L286.047 104.137L282.315 3.16393L278.324 2.9297L276.72 4.19144L255.112 2.0957L255.019 -1.46807e-05H250.899L248.968 1.5234L249.362 13.6133L247.681 14.878V16.9863H249.471L254.139 160.641L247.566 160.19L245.878 54.997H243.432L244.371 159.971L225.132 158.654C225.222 158.425 225.332 158.196 225.471 157.964C226.245 156.675 227.017 154.158 226.889 153.046C226.76 151.93 226.437 151.58 226.695 150.878C226.951 150.176 227.597 148.71 227.146 147.831C226.695 146.952 225.086 146.193 225.086 146.193C225.086 146.193 223.411 145.08 223.411 143.557C223.411 142.033 223.606 141.214 223.22 140.861C222.831 140.51 222.574 140.159 222.574 140.159C222.574 140.159 222.059 139.631 222.511 138.05C222.962 136.47 222.703 133.834 221.931 132.604C221.16 131.374 220.194 131.08 220.514 130.319C220.837 129.557 221.417 126.804 221.222 125.283C221.031 123.76 221.608 120.188 220.966 118.898C220.323 117.609 220.643 115.443 220.128 114.504C219.614 113.569 217.231 112.163 215.559 111.344C213.885 110.522 212.339 109.877 212.339 109.877C212.339 109.877 212.21 108.59 211.567 108.414C210.925 108.239 210.216 108.474 210.216 108.474C210.216 108.474 210.087 107.243 209.185 107.243C208.284 107.243 206.996 107.301 206.61 107.652C206.224 108.003 206.224 108.003 206.224 108.003C206.224 108.003 206.192 106.509 205.453 105.837C204.712 105.163 203.584 104.725 203.584 104.725C203.584 104.725 203.713 104.08 203.584 103.084C203.456 102.088 202.876 100.625 202.876 100.625C203.874 99.716 204.227 98.5737 202.876 97.9889C202.876 97.9889 199.849 94.0059 195.344 94.825C190.837 95.6464 189.166 99.1586 189.166 101.21C189.166 103.261 190.389 105.894 190.389 105.894C190.389 105.894 190.112 106.422 190.112 107.067C190.112 107.712 191.932 106.305 191.932 106.305C191.932 106.305 192.222 107.505 192.769 108.003C193.316 108.5 193.606 108.764 193.606 108.764C193.606 108.764 193.801 109.703 194.83 110.99C195.86 112.279 197.792 113.218 197.792 113.218C197.792 113.218 198.05 115.677 197.661 116.379C197.275 117.081 195.215 118.313 194.895 119.483C194.572 120.655 193.283 121.534 192.963 122.179C192.64 122.821 192.255 124.404 192.255 124.404C192.255 124.404 190.194 125.868 189.938 127.626C189.68 129.383 189.261 131.344 188.649 131.899C188.438 132.091 187.702 132.686 186.783 133.423V69.8153H182.791V126.924L172.928 138.71C172.449 138.849 172.036 139.051 171.527 139.514C170.69 140.276 170.118 142.068 170.118 142.068L163.109 150.447L163.479 102.616H159.875L159.5 154.166L152.937 153.718L130.648 105.427L127.687 106.95L133.572 119.468C132.289 120.992 130.155 123.399 128.839 124.875L124.21 114.798H120.993L138.647 152.74L107.988 150.643V153.454L140.021 155.692L150.776 178.804L111.206 176.036V178.849L152.157 181.774L159.746 198.086V221.395L135.671 219.757V222.685L158.986 224.176L159.49 224.208V251.736L143.37 247.228L137.602 234.048H134.705L139.266 246.081L133.094 244.356L131.679 240.256H128.716L141.662 273.876H121.636V277.037H142.88L143.422 278.443H132.645V280.494H144.212L148.157 290.742L109.406 289.69V292.734L148.932 293.673L150.218 295.43H133.996V297.302L149.317 298.006L147.129 299.293L148.286 300.7L150.475 299.176L152.406 302.691H137.602V300.466L118.418 299.763L114.683 302.34V305.738H115.455V313.938L98.9764 313.352L95.4996 314.873V319.09H96.4025V322.078H90.9604V310.129H89.3189V322.078H83.8171V313.994H82.5609V322.078H75.415V319.267H73.7734V322.078H66.1458V323.309H73.7734V329.971H77.7322L82.5609 327.583V329.971H83.8171V327.436H89.3189V329.971H90.9604V327.436H96.4025V329.971L344.9 329.971V203.131L341.219 202.977L340.911 194.3L343.797 192.196V189.05L340.806 191.357L340.626 186.264L344.9 186.616V184.5Z" fill="#0A1A34"/>
<path d="M1.19925 329.971H0.706787V329.523H1.19925V329.971Z" fill="white"/>
</svg>
