<svg width="29" height="29" viewBox="0 0 29 29" fill="none" xmlns="http://www.w3.org/2000/svg">
<path d="M14.5325 0.496094C6.94133 0.496094 0.765381 6.67204 0.765381 14.2633C0.765381 21.8545 6.94133 28.0304 14.5325 28.0304C22.1237 28.0304 28.2997 21.8545 28.2997 14.2633C28.2997 6.67204 22.1237 0.496094 14.5325 0.496094ZM14.5325 25.277C8.45985 25.277 3.51881 20.3359 3.51881 14.2633C3.51881 8.19056 8.45985 3.24953 14.5325 3.24953C20.6052 3.24953 25.5463 8.19056 25.5463 14.2633C25.5463 20.3359 20.6052 25.277 14.5325 25.277Z" fill="#FFAF0F"/>
<path d="M15.9092 7.37891H13.1558V15.6392H21.4161V12.8858H15.9092V7.37891Z" fill="#FFAF0F"/>
</svg>
