<svg width="32" height="32" viewBox="0 0 32 32" fill="none" xmlns="http://www.w3.org/2000/svg">
<path fill-rule="evenodd" clip-rule="evenodd" d="M15.9625 4.69922C12.8932 4.69922 12.509 4.71203 11.3036 4.76702C10.1004 4.82202 9.27848 5.01338 8.55975 5.29288C7.80637 5.57616 7.12305 6.02065 6.55801 6.59624C5.98334 7.16062 5.53857 7.84346 5.25466 8.59722C4.97666 9.31595 4.78454 10.1386 4.72955 11.3418C4.6753 12.5465 4.66174 12.9299 4.66174 16C4.66174 19.07 4.67455 19.4535 4.72955 20.6589C4.78454 21.862 4.9759 22.684 5.25541 23.4027C5.53868 24.1561 5.98318 24.8394 6.55876 25.4045C7.12316 25.9791 7.806 26.4239 8.55975 26.7078C9.27848 26.9866 10.1004 27.1779 11.3036 27.2329C12.509 27.2879 12.8932 27.3007 15.9625 27.3007C19.0318 27.3007 19.416 27.2879 20.6214 27.2329C21.8246 27.1779 22.6465 26.9866 23.3652 26.7071C24.1186 26.4238 24.8019 25.9793 25.367 25.4037C25.9416 24.8393 26.3864 24.1565 26.6703 23.4027C26.9491 22.684 27.1404 21.862 27.1954 20.6589C27.2504 19.4535 27.2632 19.0693 27.2632 16C27.2632 12.9307 27.2504 12.5465 27.1954 11.341C27.1404 10.1379 26.9491 9.31595 26.6696 8.59722C26.3859 7.84314 25.9411 7.16001 25.3662 6.59548C24.8018 6.02082 24.119 5.57605 23.3652 5.29213C22.6465 5.01413 21.8238 4.82202 20.6207 4.76702C19.416 4.71278 19.0325 4.69922 15.9625 4.69922ZM15.9625 6.73561C18.9798 6.73561 19.3377 6.74691 20.5295 6.80116C21.631 6.85164 22.2291 7.03471 22.6277 7.19066C23.155 7.39482 23.5317 7.64043 23.9273 8.0352C24.3228 8.43073 24.5676 8.80742 24.7718 9.33479C24.927 9.73333 25.1108 10.3315 25.1613 11.433C25.2155 12.6248 25.2269 12.9827 25.2269 16C25.2269 19.0173 25.2155 19.3751 25.1613 20.567C25.1108 21.6684 24.9278 22.2666 24.7718 22.6652C24.5909 23.156 24.3024 23.6001 23.9273 23.9647C23.5627 24.3399 23.1186 24.6285 22.6277 24.8093C22.2291 24.9645 21.631 25.1483 20.5295 25.1988C19.3377 25.253 18.9805 25.2643 15.9625 25.2643C12.9444 25.2643 12.5873 25.253 11.3955 25.1988C10.294 25.1483 9.69585 24.9652 9.29731 24.8093C8.80645 24.6284 8.36237 24.3398 7.99773 23.9647C7.62267 23.6001 7.33409 23.156 7.15318 22.6652C6.99799 22.2666 6.81416 21.6684 6.76368 20.567C6.70944 19.3751 6.69814 19.0173 6.69814 16C6.69814 12.9827 6.70944 12.6248 6.76368 11.433C6.81416 10.3315 6.99723 9.73333 7.15318 9.33479C7.35735 8.80742 7.60295 8.43073 7.99773 8.0352C8.36232 7.66005 8.80641 7.37145 9.29731 7.19066C9.69585 7.03546 10.294 6.85164 11.3955 6.80116C12.5873 6.74691 12.9452 6.73561 15.9625 6.73561V6.73561Z" fill="#0A1A34"/>
<path fill-rule="evenodd" clip-rule="evenodd" d="M15.9625 19.7707C15.4673 19.7707 14.977 19.6731 14.5195 19.4837C14.0621 19.2942 13.6464 19.0164 13.2962 18.6663C12.9461 18.3161 12.6684 17.9005 12.4789 17.443C12.2894 16.9855 12.1918 16.4952 12.1918 16C12.1918 15.5048 12.2894 15.0145 12.4789 14.557C12.6684 14.0995 12.9461 13.6839 13.2962 13.3337C13.6464 12.9836 14.0621 12.7058 14.5195 12.5163C14.977 12.3268 15.4673 12.2293 15.9625 12.2293C16.9626 12.2293 17.9217 12.6266 18.6288 13.3337C19.3359 14.0409 19.7332 14.9999 19.7332 16C19.7332 17 19.3359 17.9591 18.6288 18.6663C17.9217 19.3734 16.9626 19.7707 15.9625 19.7707V19.7707ZM15.9625 10.1914C14.422 10.1914 12.9445 10.8034 11.8552 11.8927C10.7659 12.982 10.1539 14.4595 10.1539 16C10.1539 17.5405 10.7659 19.018 11.8552 20.1073C12.9445 21.1966 14.422 21.8086 15.9625 21.8086C17.503 21.8086 18.9805 21.1966 20.0698 20.1073C21.1591 19.018 21.7711 17.5405 21.7711 16C21.7711 14.4595 21.1591 12.982 20.0698 11.8927C18.9805 10.8034 17.503 10.1914 15.9625 10.1914V10.1914ZM23.4609 10.0859C23.4609 10.4501 23.3163 10.7993 23.0588 11.0568C22.8013 11.3143 22.4521 11.459 22.0879 11.459C21.7237 11.459 21.3745 11.3143 21.117 11.0568C20.8595 10.7993 20.7149 10.4501 20.7149 10.0859C20.7149 9.72178 20.8595 9.37254 21.117 9.11505C21.3745 8.85755 21.7237 8.71289 22.0879 8.71289C22.4521 8.71289 22.8013 8.85755 23.0588 9.11505C23.3163 9.37254 23.4609 9.72178 23.4609 10.0859" fill="#0A1A34"/>
</svg>
