<svg width="24" height="24" viewBox="0 0 24 24" fill="none" xmlns="http://www.w3.org/2000/svg">
<path d="M23.2331 2.36109V21.6388C23.2331 22.0796 23.058 22.5023 22.7463 22.814C22.4347 23.1256 22.012 23.3007 21.5712 23.3007H2.29347C1.85271 23.3007 1.43001 23.1256 1.11834 22.814C0.806682 22.5023 0.631592 22.0796 0.631592 21.6388L0.631592 2.36109C0.631592 1.92034 0.806682 1.49763 1.11834 1.18597C1.43001 0.874309 1.85271 0.699219 2.29347 0.699219L21.5712 0.699219C22.012 0.699219 22.4347 0.874309 22.7463 1.18597C23.058 1.49763 23.2331 1.92034 23.2331 2.36109V2.36109ZM7.27909 9.34097H3.95534V19.977H7.27909V9.34097ZM7.57823 5.68484C7.57998 5.43343 7.5322 5.18413 7.4376 4.95119C7.343 4.71824 7.20345 4.50621 7.02691 4.3272C6.85036 4.14818 6.64029 4.0057 6.40868 3.90788C6.17707 3.81005 5.92846 3.75881 5.67705 3.75707H5.61722C5.10594 3.75707 4.6156 3.96017 4.25407 4.3217C3.89255 4.68323 3.68944 5.17357 3.68944 5.68484C3.68944 6.19612 3.89255 6.68646 4.25407 7.04799C4.6156 7.40952 5.10594 7.61262 5.61722 7.61262V7.61262C5.86865 7.61881 6.11884 7.57539 6.35348 7.48485C6.58813 7.39431 6.80264 7.25842 6.98475 7.08495C7.16686 6.91149 7.31301 6.70383 7.41484 6.47386C7.51667 6.24389 7.57219 5.99611 7.57823 5.74467V5.68484ZM19.9093 13.5156C19.9093 10.3182 17.8752 9.07507 15.8544 9.07507C15.1927 9.04194 14.5339 9.18287 13.9437 9.4838C13.3535 9.78473 12.8525 10.2351 12.4907 10.7901H12.3977V9.34097H9.27334V19.977H12.5971V14.3199C12.549 13.7406 12.7315 13.1656 13.105 12.72C13.4784 12.2745 14.0125 11.9942 14.5913 11.9401H14.7176C15.7746 11.9401 16.559 12.6049 16.559 14.2801V19.977H19.8828L19.9093 13.5156Z" fill="#0A1A34"/>
</svg>
