<svg width="26" height="31" viewBox="0 0 26 31" fill="none" xmlns="http://www.w3.org/2000/svg">
<path d="M12.9066 17.0017C10.5737 17.0017 8.68259 15.1106 8.68259 12.7777C8.68259 10.4449 10.5737 8.55371 12.9066 8.55371C15.2395 8.55371 17.1306 10.4449 17.1306 12.7777C17.1306 15.1106 15.2395 17.0017 12.9066 17.0017Z" stroke="#FFAF0F" stroke-width="2.50312" stroke-linecap="round" stroke-linejoin="round"/>
<path d="M12.9066 1.51514C15.894 1.51514 18.7591 2.70188 20.8715 4.8143C22.9839 6.92671 24.1707 9.79176 24.1707 12.7792C24.1707 15.4431 23.6046 17.1862 22.0586 19.1152L12.9066 29.6752L3.75459 19.1152C2.2086 17.1862 1.64258 15.4431 1.64258 12.7792C1.64258 9.79176 2.82932 6.92671 4.94174 4.8143C7.05416 2.70188 9.91921 1.51514 12.9066 1.51514V1.51514Z" stroke="#FFAF0F" stroke-width="2.50312" stroke-linecap="round" stroke-linejoin="round"/>
</svg>
