<svg width="20" height="20" viewBox="0 0 20 20" fill="none" xmlns="http://www.w3.org/2000/svg">
<path d="M4.34197 9.09379C5.87396 12.1046 8.34217 14.5621 11.353 16.1048L13.6935 13.7642C13.9807 13.477 14.4063 13.3812 14.7787 13.5089C15.9702 13.9025 17.2575 14.1153 18.5767 14.1153C19.1618 14.1153 19.6406 14.5941 19.6406 15.1792V18.8921C19.6406 19.4773 19.1618 19.956 18.5767 19.956C8.58686 19.956 0.490723 11.8599 0.490723 1.87003C0.490723 1.2849 0.969469 0.806152 1.5546 0.806152H5.27819C5.86333 0.806152 6.34207 1.2849 6.34207 1.87003C6.34207 3.19989 6.55485 4.47655 6.94849 5.66809C7.06551 6.04045 6.9804 6.45537 6.68251 6.75325L4.34197 9.09379Z" fill="white"/>
</svg>
